# xmcd
#
# Track frame offsets: 
#        150
#        4517
#        17810
#        32105
#        43075
#        56605
#        69252
#        80715
#        94157
#        109162
#        120050
#        135082
#        148105
#        161270
#        174320
#        190867
#        204657
#        218725
#        232570
#        246275
#        257570
#
# Disc length: 3658 seconds
#
# Revision: 1
# Processed by: cddbd v1.5.2PL0 Copyright (c) Steve Scherf et al.
# Submitted via: ExactAudioCopyFreeDBPlugin 1.0
#
DISCID=0a0e4815
DTITLE=Various Artist - Delta Blues - Blues Story
DYEAR=1900
DGENRE=
TTITLE0=Leadbelly - Black Betty - 1964
TTITLE1=Robert Johnson - I Believe I'll Dust My Room
TTITLE2=Charley Patton - A Spoonfull Blues - 1930
TTITLE3=Alberta Hunter - St Louis Blues - 1961
TTITLE4=Blind  Blake - Blind's Arthur Breakdown - 1929
TTITLE5=Blind Boy Fuller - Truckin' My Blues Away - 1936
TTITLE6=Blind Willie McTell - Statesboro Blues
TTITLE7=essie Smith - Nobody Knows You When You're Down And Out - 1933
TTITLE8=Ma Rainey - See See Rider - 1925
TTITLE9=Guitar Slim - If I Should Loose You - 1957
TTITLE10=Mississippi Fred McDowell - Shake 'Em On Down - 1959
TTITLE11=Mississippi John Hurt - Nobody's Dirty Business - 1928
TTITLE12=Lightnin' Slim - That's Alright - 1971
TTITLE13=Bukka White - Special Stream Line - 1940
TTITLE14=Brownie Mc Ghee - The Killing Floor - 1960
TTITLE15=Koko Taylor - Let The Good Time Roll - 1987
TTITLE16=J.B. Hutto - Things Are So Slow - 1954
TTITLE17=Furry Lewis - Dry Land Blues - 1932
TTITLE18=Son House - Preachin' The Blues - 1930
TTITLE19=John Lee Hooker - Boom Boom - 1961
TTITLE20=Ike and Tina Turner - I Smell Trouble - 19
EXTD=
EXTT0=
EXTT1=
EXTT2=
EXTT3=
EXTT4=
EXTT5=
EXTT6=
EXTT7=
EXTT8=
EXTT9=
EXTT10=
EXTT11=
EXTT12=
EXTT13=
EXTT14=
EXTT15=
EXTT16=
EXTT17=
EXTT18=
EXTT19=
EXTT20=
PLAYORDER=
